<svg height="512" viewBox="0 0 128 128" width="512" xmlns="http://www.w3.org/2000/svg"><g><path d="m105.3 60.966a38.113 38.113 0 0 0 -8.257-18.838l14.09-34.974a1.75 1.75 0 0 0 -2.763-1.982l-22.8 19.57a94.316 94.316 0 0 0 -14.028-2.649 65.872 65.872 0 0 0 -7.11-7.758 1.75 1.75 0 0 0 -2.536.18 26.1 26.1 0 0 0 -3.928 6.721c-7.141-.05-18.511.565-23.124 4.619a1.75 1.75 0 0 0 .926 3.05 46.225 46.225 0 0 1 6.306 1.381c-11.712 4.681-23.776 13.186-28.959 20.723a1.75 1.75 0 0 0 1.859 2.691 35.117 35.117 0 0 1 4.59-.827c-5.766 7.533-9.476 19.37-9.356 26.806a1.75 1.75 0 0 0 3.394.569c.4-1.091 2.285-3.135 4.224-4.97 1.192 10.274 4.006 15.1 6.97 20.186a52.462 52.462 0 0 1 5.763 12.686c.734 4.382 1.718 8.975 3 13.8a1.748 1.748 0 0 0 1.691 1.3h68.558a1.75 1.75 0 0 0 1.75-1.75c0-12.547-7.932-22.914-14.306-31.244-1.735-2.269-3.351-4.38-4.611-6.29 7.92 4.106 20 8.317 24.877 3.822l.276-.245a11.092 11.092 0 0 0 4.321-8.407c.076-5.21-3.561-11.321-10.817-18.17zm-22.866-28.919 4.889-4.2 9.077 6.518-2 4.97a35.184 35.184 0 0 0 -11.966-7.288zm13.3-11.416 4.807 3.453-2.8 6.938-7.684-5.522zm6.153.112-3.42-2.457 6.74-5.785zm-19.547 6.772-3.873 3.324c-1-.243-1.85-.406-2.5-.511a16.3 16.3 0 0 0 -1.823-4.364c2.93.426 5.692.947 8.196 1.551zm-54.519 66.185c-3.2-5.494-5.967-10.238-6.826-22.157a1.75 1.75 0 0 0 -2.864-1.22c-.548.456-2.19 1.848-3.845 3.506 1.431-7.512 5.386-16.692 10.422-21.493a1.75 1.75 0 0 0 -.92-2.993 19.184 19.184 0 0 0 -4.839.076c6.677-7 18.668-14.356 29.1-17.536a1.75 1.75 0 0 0 .1-3.313c-.179-.067-3.167-1.178-6.776-2.1a59.2 59.2 0 0 1 15.39-1.73 40.828 40.828 0 0 0 -1.487 9c-10 4.939-28.76 23.548-26.17 62.2q-.641-1.14-1.285-2.24zm81.668-8.792c-.13.113-.245.215-.341.3-3.571 3.288-18.294-2.058-25.652-7.15a1.749 1.749 0 0 0 -2.696 1.867c.9 3.613 4.039 7.712 7.67 12.458 5.739 7.5 12.81 16.742 13.525 27.367h-65.395c-14.081-54.911 10.379-78.711 21.085-83.265a1.748 1.748 0 0 0 1.065-1.61c0-.418.058-9.656 4.721-16.613a61.914 61.914 0 0 1 5.729 6.538l.04.054c1.879 2.533 3.355 5.139 3.434 7.11a1.754 1.754 0 0 0 1.633 1.676 24.482 24.482 0 0 1 3.944.691 1.753 1.753 0 0 0 .552.144 30.84 30.84 0 0 1 14.772 8.9 1.713 1.713 0 0 0 .374.406c3.653 4.169 6.722 10.044 7.988 18.32a1.757 1.757 0 0 0 .539 1.017c6.7 6.225 10.2 11.747 10.14 15.968a7.69 7.69 0 0 1 -3.127 5.823z"/><path d="m37.529 76.011a1.759 1.759 0 0 0 -1.961 1.51 93.309 93.309 0 0 0 -.351 19.534 1.75 1.75 0 0 0 1.742 1.608q.072 0 .144-.006a1.75 1.75 0 0 0 1.6-1.886 89.848 89.848 0 0 1 .334-18.8 1.75 1.75 0 0 0 -1.508-1.96z"/><path d="m88.914 53.308a18.03 18.03 0 0 1 -11.263-6.508 1.751 1.751 0 1 0 -2.781 2.127c2.577 3.369 7.958 7.266 13.683 7.862a1.6 1.6 0 0 0 .182.01 1.75 1.75 0 0 0 .179-3.49z"/></g></svg>