<svg xmlns="http://www.w3.org/2000/svg" fill="white" width="45" height="45" viewBox="0 0 52.682 40.538"><g transform="translate(-76.971 -259.462)"><path d="M14.97,38c0-.042,0-.563.051-1.439a48.764,48.764,0,0,1,3.756-16.348c3.357-7.549,11.476-9.612,14.035-10.085A22.646,22.646,0,0,1,33.859,5.9,6.475,6.475,0,0,0,30.48,5C26.813,5,26,9.394,25.966,9.581a1,1,0,0,1-1.7.528c-.274-.275-2.8-2.637-5.978.063-2.941,2.5-1.6,6.208-1.542,6.365a1,1,0,0,1-.158.98.99.99,0,0,1-.922.362,6.48,6.48,0,0,0-7.152,4.882c-1.64,5.859,1.462,9.174,1.594,9.312a1,1,0,0,1-.574,1.687c-.223.034-5.563.931-5.563,7.42A5.876,5.876,0,0,0,4.663,44H14.97Z" transform="translate(73 256)"/><path d="M44.643,5.121a4.158,4.158,0,0,0-2.334-.408,3.338,3.338,0,0,0-1.773.786A16.486,16.486,0,0,1,41.6,7.622C42.426,6.88,43.453,6.018,44.643,5.121Z" transform="translate(73 256)"/><path d="M49.846,17.838c2.15.464,3.847.329,5.033-.416a4.57,4.57,0,0,0,1.774-2.3A9.717,9.717,0,0,1,50.3,12.441a32.1,32.1,0,0,1-2.678,3.208c.719.684,1.472,1.42,2.224,2.189Z" transform="translate(73 256)"/><path d="M51.335,6.817c.335-.706.615-1.372.847-1.986A1,1,0,0,0,50.8,3.57a35.768,35.768,0,0,0-3.812,2.313c-.342.24-.668.48-.987.718a9.358,9.358,0,0,0,5.334.216Z" transform="translate(73 256)"/><path d="M48.964,9.114a10.465,10.465,0,0,1-4.752-1.1c-.722.6-1.352,1.157-1.868,1.637.236.733.411,1.369.517,1.791.6.491,1.812,1.512,3.289,2.852a29.694,29.694,0,0,0,3.217-4c.279-.42.536-.832.778-1.239C49.738,9.088,49.341,9.114,48.964,9.114Z" transform="translate(73 256)"/><path d="M41.339,12.776A1,1,0,0,1,41,12.231c-.663-2.791-2.3-6.957-3.874-7.483-.45-.143-.928.783-1.114,1.19A20.275,20.275,0,0,0,34.7,11.113a1,1,0,0,1-.875.88c-.1.012-9.757,1.258-13.214,9.033a46.652,46.652,0,0,0-3.585,15.647c-.049.81-.049,1.289-.049,1.327v6H44.585c-.182-.156-.355-.312-.542-.471A25.1,25.1,0,0,1,40.4,39.935,13.407,13.407,0,0,1,37.4,34c-5.182-.027-6.556-4.584-6.556-7a1,1,0,0,1,2,0c0,.509.16,5,4.6,5,.281,0,.544,0,.8-.009a30.776,30.776,0,0,0,3.87-.286,4.6,4.6,0,0,1,3.251.4,9.375,9.375,0,0,1,1.927,1.38A4.622,4.622,0,0,0,50.52,35c3.077,0,4.45-.866,4.45-6,0-4.212-9.84-13.14-13.631-16.224Zm2.335,8.931a1,1,0,0,1-1.412,0,3.126,3.126,0,0,0-4.588,0,1,1,0,0,1-1.414-1.414,5.055,5.055,0,0,1,7.414,0,1,1,0,0,1,0,1.414ZM52.967,32a1,1,0,1,1,1-1A1,1,0,0,1,52.967,32Z" transform="translate(73 256)"/></g></svg>
